<?xml version="1.0" encoding="utf-8"?>
<svg xmlns="http://www.w3.org/2000/svg" xmlns:xlink="http://www.w3.org/1999/xlink" xml:space="preserve" width="870" height="1087.5" viewBox="0 0 870 1087.5"><g transform="scale(36.25)" fill="#000000"><path d="M1.3,24l21.3,0c0.7,0,1.3-0.6,1.3-1.3l0-21.3C24,0.6,23.4,0,22.7,0L1.3,0C0.6,0,0,0.6,0,1.3l0,21.3 C0,23.4,0.6,24,1.3,24z M1,2c0-0.6,0.5-1,1-1l20,0c0.6,0,1,0.5,1,1v20c0,0.6-0.5,1-1,1L2,23c-0.6,0-1-0.5-1-1V2z"/><path d="M1,30h22c0.5,0,1-0.4,1-1v-3c0-0.5-0.4-1-1-1H13l-1-1l-1,1H1c-0.5,0-1,0.4-1,1v3C0,29.6,0.4,30,1,30z"/></g><g fill="#000000">
<g transform="translate(303,87) scale(4.12)"><rect width="6" height="6"/></g>
<g transform="translate(375,87) scale(4.12)"><rect width="6" height="6"/></g>
<g transform="translate(471,87) scale(4.12)"><rect width="6" height="6"/></g>
<g transform="translate(519,87) scale(4.12)"><rect width="6" height="6"/></g>
<g transform="translate(543,87) scale(4.12)"><rect width="6" height="6"/></g>
<g transform="translate(567,87) scale(4.12)"><rect width="6" height="6"/></g>
<g transform="translate(303,111) scale(4.12)"><rect width="6" height="6"/></g>
<g transform="translate(351,111) scale(4.12)"><rect width="6" height="6"/></g>
<g transform="translate(447,111) scale(4.12)"><rect width="6" height="6"/></g>
<g transform="translate(519,111) scale(4.12)"><rect width="6" height="6"/></g>
<g transform="translate(279,135) scale(4.12)"><rect width="6" height="6"/></g>
<g transform="translate(351,135) scale(4.12)"><rect width="6" height="6"/></g>
<g transform="translate(375,135) scale(4.12)"><rect width="6" height="6"/></g>
<g transform="translate(423,135) scale(4.12)"><rect width="6" height="6"/></g>
<g transform="translate(471,135) scale(4.12)"><rect width="6" height="6"/></g>
<g transform="translate(567,135) scale(4.12)"><rect width="6" height="6"/></g>
<g transform="translate(279,159) scale(4.12)"><rect width="6" height="6"/></g>
<g transform="translate(303,159) scale(4.12)"><rect width="6" height="6"/></g>
<g transform="translate(375,159) scale(4.12)"><rect width="6" height="6"/></g>
<g transform="translate(399,159) scale(4.12)"><rect width="6" height="6"/></g>
<g transform="translate(423,159) scale(4.12)"><rect width="6" height="6"/></g>
<g transform="translate(447,159) scale(4.12)"><rect width="6" height="6"/></g>
<g transform="translate(495,159) scale(4.12)"><rect width="6" height="6"/></g>
<g transform="translate(567,159) scale(4.12)"><rect width="6" height="6"/></g>
<g transform="translate(279,183) scale(4.12)"><rect width="6" height="6"/></g>
<g transform="translate(327,183) scale(4.12)"><rect width="6" height="6"/></g>
<g transform="translate(351,183) scale(4.12)"><rect width="6" height="6"/></g>
<g transform="translate(375,183) scale(4.12)"><rect width="6" height="6"/></g>
<g transform="translate(399,183) scale(4.12)"><rect width="6" height="6"/></g>
<g transform="translate(471,183) scale(4.12)"><rect width="6" height="6"/></g>
<g transform="translate(543,183) scale(4.12)"><rect width="6" height="6"/></g>
<g transform="translate(567,183) scale(4.12)"><rect width="6" height="6"/></g>
<g transform="translate(279,207) scale(4.12)"><rect width="6" height="6"/></g>
<g transform="translate(447,207) scale(4.12)"><rect width="6" height="6"/></g>
<g transform="translate(471,207) scale(4.12)"><rect width="6" height="6"/></g>
<g transform="translate(567,207) scale(4.12)"><rect width="6" height="6"/></g>
<g transform="translate(279,231) scale(4.12)"><rect width="6" height="6"/></g>
<g transform="translate(327,231) scale(4.12)"><rect width="6" height="6"/></g>
<g transform="translate(375,231) scale(4.12)"><rect width="6" height="6"/></g>
<g transform="translate(423,231) scale(4.12)"><rect width="6" height="6"/></g>
<g transform="translate(471,231) scale(4.12)"><rect width="6" height="6"/></g>
<g transform="translate(519,231) scale(4.12)"><rect width="6" height="6"/></g>
<g transform="translate(567,231) scale(4.12)"><rect width="6" height="6"/></g>
<g transform="translate(279,255) scale(4.12)"><rect width="6" height="6"/></g>
<g transform="translate(375,255) scale(4.12)"><rect width="6" height="6"/></g>
<g transform="translate(423,255) scale(4.12)"><rect width="6" height="6"/></g>
<g transform="translate(471,255) scale(4.12)"><rect width="6" height="6"/></g>
<g transform="translate(567,255) scale(4.12)"><rect width="6" height="6"/></g>
<g transform="translate(87,279) scale(4.12)"><rect width="6" height="6"/></g>
<g transform="translate(135,279) scale(4.12)"><rect width="6" height="6"/></g>
<g transform="translate(159,279) scale(4.12)"><rect width="6" height="6"/></g>
<g transform="translate(183,279) scale(4.12)"><rect width="6" height="6"/></g>
<g transform="translate(207,279) scale(4.12)"><rect width="6" height="6"/></g>
<g transform="translate(231,279) scale(4.12)"><rect width="6" height="6"/></g>
<g transform="translate(303,279) scale(4.12)"><rect width="6" height="6"/></g>
<g transform="translate(327,279) scale(4.12)"><rect width="6" height="6"/></g>
<g transform="translate(351,279) scale(4.12)"><rect width="6" height="6"/></g>
<g transform="translate(375,279) scale(4.12)"><rect width="6" height="6"/></g>
<g transform="translate(399,279) scale(4.12)"><rect width="6" height="6"/></g>
<g transform="translate(423,279) scale(4.12)"><rect width="6" height="6"/></g>
<g transform="translate(495,279) scale(4.12)"><rect width="6" height="6"/></g>
<g transform="translate(615,279) scale(4.12)"><rect width="6" height="6"/></g>
<g transform="translate(639,279) scale(4.12)"><rect width="6" height="6"/></g>
<g transform="translate(663,279) scale(4.12)"><rect width="6" height="6"/></g>
<g transform="translate(687,279) scale(4.12)"><rect width="6" height="6"/></g>
<g transform="translate(711,279) scale(4.12)"><rect width="6" height="6"/></g>
<g transform="translate(87,303) scale(4.12)"><rect width="6" height="6"/></g>
<g transform="translate(111,303) scale(4.12)"><rect width="6" height="6"/></g>
<g transform="translate(135,303) scale(4.12)"><rect width="6" height="6"/></g>
<g transform="translate(183,303) scale(4.12)"><rect width="6" height="6"/></g>
<g transform="translate(207,303) scale(4.12)"><rect width="6" height="6"/></g>
<g transform="translate(303,303) scale(4.12)"><rect width="6" height="6"/></g>
<g transform="translate(375,303) scale(4.12)"><rect width="6" height="6"/></g>
<g transform="translate(423,303) scale(4.12)"><rect width="6" height="6"/></g>
<g transform="translate(471,303) scale(4.12)"><rect width="6" height="6"/></g>
<g transform="translate(543,303) scale(4.12)"><rect width="6" height="6"/></g>
<g transform="translate(567,303) scale(4.12)"><rect width="6" height="6"/></g>
<g transform="translate(615,303) scale(4.12)"><rect width="6" height="6"/></g>
<g transform="translate(639,303) scale(4.12)"><rect width="6" height="6"/></g>
<g transform="translate(663,303) scale(4.12)"><rect width="6" height="6"/></g>
<g transform="translate(759,303) scale(4.12)"><rect width="6" height="6"/></g>
<g transform="translate(183,327) scale(4.12)"><rect width="6" height="6"/></g>
<g transform="translate(207,327) scale(4.12)"><rect width="6" height="6"/></g>
<g transform="translate(231,327) scale(4.12)"><rect width="6" height="6"/></g>
<g transform="translate(399,327) scale(4.12)"><rect width="6" height="6"/></g>
<g transform="translate(447,327) scale(4.12)"><rect width="6" height="6"/></g>
<g transform="translate(471,327) scale(4.12)"><rect width="6" height="6"/></g>
<g transform="translate(495,327) scale(4.12)"><rect width="6" height="6"/></g>
<g transform="translate(519,327) scale(4.12)"><rect width="6" height="6"/></g>
<g transform="translate(663,327) scale(4.12)"><rect width="6" height="6"/></g>
<g transform="translate(87,351) scale(4.12)"><rect width="6" height="6"/></g>
<g transform="translate(111,351) scale(4.12)"><rect width="6" height="6"/></g>
<g transform="translate(183,351) scale(4.12)"><rect width="6" height="6"/></g>
<g transform="translate(303,351) scale(4.12)"><rect width="6" height="6"/></g>
<g transform="translate(375,351) scale(4.12)"><rect width="6" height="6"/></g>
<g transform="translate(447,351) scale(4.12)"><rect width="6" height="6"/></g>
<g transform="translate(519,351) scale(4.12)"><rect width="6" height="6"/></g>
<g transform="translate(687,351) scale(4.12)"><rect width="6" height="6"/></g>
<g transform="translate(735,351) scale(4.12)"><rect width="6" height="6"/></g>
<g transform="translate(87,375) scale(4.12)"><rect width="6" height="6"/></g>
<g transform="translate(111,375) scale(4.12)"><rect width="6" height="6"/></g>
<g transform="translate(135,375) scale(4.12)"><rect width="6" height="6"/></g>
<g transform="translate(159,375) scale(4.12)"><rect width="6" height="6"/></g>
<g transform="translate(231,375) scale(4.12)"><rect width="6" height="6"/></g>
<g transform="translate(255,375) scale(4.12)"><rect width="6" height="6"/></g>
<g transform="translate(303,375) scale(4.12)"><rect width="6" height="6"/></g>
<g transform="translate(351,375) scale(4.12)"><rect width="6" height="6"/></g>
<g transform="translate(495,375) scale(4.12)"><rect width="6" height="6"/></g>
<g transform="translate(567,375) scale(4.12)"><rect width="6" height="6"/></g>
<g transform="translate(687,375) scale(4.12)"><rect width="6" height="6"/></g>
<g transform="translate(711,375) scale(4.12)"><rect width="6" height="6"/></g>
<g transform="translate(159,399) scale(4.12)"><rect width="6" height="6"/></g>
<g transform="translate(255,399) scale(4.12)"><rect width="6" height="6"/></g>
<g transform="translate(279,399) scale(4.12)"><rect width="6" height="6"/></g>
<g transform="translate(303,399) scale(4.12)"><rect width="6" height="6"/></g>
<g transform="translate(351,399) scale(4.12)"><rect width="6" height="6"/></g>
<g transform="translate(375,399) scale(4.12)"><rect width="6" height="6"/></g>
<g transform="translate(399,399) scale(4.12)"><rect width="6" height="6"/></g>
<g transform="translate(471,399) scale(4.12)"><rect width="6" height="6"/></g>
<g transform="translate(495,399) scale(4.12)"><rect width="6" height="6"/></g>
<g transform="translate(519,399) scale(4.12)"><rect width="6" height="6"/></g>
<g transform="translate(543,399) scale(4.12)"><rect width="6" height="6"/></g>
<g transform="translate(567,399) scale(4.12)"><rect width="6" height="6"/></g>
<g transform="translate(591,399) scale(4.12)"><rect width="6" height="6"/></g>
<g transform="translate(615,399) scale(4.12)"><rect width="6" height="6"/></g>
<g transform="translate(639,399) scale(4.12)"><rect width="6" height="6"/></g>
<g transform="translate(663,399) scale(4.12)"><rect width="6" height="6"/></g>
<g transform="translate(759,399) scale(4.12)"><rect width="6" height="6"/></g>
<g transform="translate(135,423) scale(4.12)"><rect width="6" height="6"/></g>
<g transform="translate(159,423) scale(4.12)"><rect width="6" height="6"/></g>
<g transform="translate(183,423) scale(4.12)"><rect width="6" height="6"/></g>
<g transform="translate(231,423) scale(4.12)"><rect width="6" height="6"/></g>
<g transform="translate(255,423) scale(4.12)"><rect width="6" height="6"/></g>
<g transform="translate(279,423) scale(4.12)"><rect width="6" height="6"/></g>
<g transform="translate(303,423) scale(4.12)"><rect width="6" height="6"/></g>
<g transform="translate(399,423) scale(4.12)"><rect width="6" height="6"/></g>
<g transform="translate(423,423) scale(4.12)"><rect width="6" height="6"/></g>
<g transform="translate(447,423) scale(4.12)"><rect width="6" height="6"/></g>
<g transform="translate(519,423) scale(4.12)"><rect width="6" height="6"/></g>
<g transform="translate(567,423) scale(4.12)"><rect width="6" height="6"/></g>
<g transform="translate(591,423) scale(4.12)"><rect width="6" height="6"/></g>
<g transform="translate(663,423) scale(4.12)"><rect width="6" height="6"/></g>
<g transform="translate(687,423) scale(4.12)"><rect width="6" height="6"/></g>
<g transform="translate(711,423) scale(4.12)"><rect width="6" height="6"/></g>
<g transform="translate(87,447) scale(4.12)"><rect width="6" height="6"/></g>
<g transform="translate(375,447) scale(4.12)"><rect width="6" height="6"/></g>
<g transform="translate(399,447) scale(4.12)"><rect width="6" height="6"/></g>
<g transform="translate(543,447) scale(4.12)"><rect width="6" height="6"/></g>
<g transform="translate(567,447) scale(4.12)"><rect width="6" height="6"/></g>
<g transform="translate(591,447) scale(4.12)"><rect width="6" height="6"/></g>
<g transform="translate(615,447) scale(4.12)"><rect width="6" height="6"/></g>
<g transform="translate(639,447) scale(4.12)"><rect width="6" height="6"/></g>
<g transform="translate(663,447) scale(4.12)"><rect width="6" height="6"/></g>
<g transform="translate(735,447) scale(4.12)"><rect width="6" height="6"/></g>
<g transform="translate(87,471) scale(4.12)"><rect width="6" height="6"/></g>
<g transform="translate(111,471) scale(4.12)"><rect width="6" height="6"/></g>
<g transform="translate(135,471) scale(4.12)"><rect width="6" height="6"/></g>
<g transform="translate(159,471) scale(4.12)"><rect width="6" height="6"/></g>
<g transform="translate(183,471) scale(4.12)"><rect width="6" height="6"/></g>
<g transform="translate(231,471) scale(4.12)"><rect width="6" height="6"/></g>
<g transform="translate(303,471) scale(4.12)"><rect width="6" height="6"/></g>
<g transform="translate(351,471) scale(4.12)"><rect width="6" height="6"/></g>
<g transform="translate(375,471) scale(4.12)"><rect width="6" height="6"/></g>
<g transform="translate(423,471) scale(4.12)"><rect width="6" height="6"/></g>
<g transform="translate(447,471) scale(4.12)"><rect width="6" height="6"/></g>
<g transform="translate(495,471) scale(4.12)"><rect width="6" height="6"/></g>
<g transform="translate(543,471) scale(4.12)"><rect width="6" height="6"/></g>
<g transform="translate(591,471) scale(4.12)"><rect width="6" height="6"/></g>
<g transform="translate(639,471) scale(4.12)"><rect width="6" height="6"/></g>
<g transform="translate(687,471) scale(4.12)"><rect width="6" height="6"/></g>
<g transform="translate(711,471) scale(4.12)"><rect width="6" height="6"/></g>
<g transform="translate(87,495) scale(4.12)"><rect width="6" height="6"/></g>
<g transform="translate(111,495) scale(4.12)"><rect width="6" height="6"/></g>
<g transform="translate(135,495) scale(4.12)"><rect width="6" height="6"/></g>
<g transform="translate(183,495) scale(4.12)"><rect width="6" height="6"/></g>
<g transform="translate(279,495) scale(4.12)"><rect width="6" height="6"/></g>
<g transform="translate(327,495) scale(4.12)"><rect width="6" height="6"/></g>
<g transform="translate(447,495) scale(4.12)"><rect width="6" height="6"/></g>
<g transform="translate(471,495) scale(4.12)"><rect width="6" height="6"/></g>
<g transform="translate(543,495) scale(4.12)"><rect width="6" height="6"/></g>
<g transform="translate(591,495) scale(4.12)"><rect width="6" height="6"/></g>
<g transform="translate(615,495) scale(4.12)"><rect width="6" height="6"/></g>
<g transform="translate(639,495) scale(4.12)"><rect width="6" height="6"/></g>
<g transform="translate(663,495) scale(4.12)"><rect width="6" height="6"/></g>
<g transform="translate(711,495) scale(4.12)"><rect width="6" height="6"/></g>
<g transform="translate(759,495) scale(4.12)"><rect width="6" height="6"/></g>
<g transform="translate(87,519) scale(4.12)"><rect width="6" height="6"/></g>
<g transform="translate(159,519) scale(4.12)"><rect width="6" height="6"/></g>
<g transform="translate(231,519) scale(4.12)"><rect width="6" height="6"/></g>
<g transform="translate(327,519) scale(4.12)"><rect width="6" height="6"/></g>
<g transform="translate(351,519) scale(4.12)"><rect width="6" height="6"/></g>
<g transform="translate(375,519) scale(4.12)"><rect width="6" height="6"/></g>
<g transform="translate(447,519) scale(4.12)"><rect width="6" height="6"/></g>
<g transform="translate(471,519) scale(4.12)"><rect width="6" height="6"/></g>
<g transform="translate(495,519) scale(4.12)"><rect width="6" height="6"/></g>
<g transform="translate(519,519) scale(4.12)"><rect width="6" height="6"/></g>
<g transform="translate(567,519) scale(4.12)"><rect width="6" height="6"/></g>
<g transform="translate(615,519) scale(4.12)"><rect width="6" height="6"/></g>
<g transform="translate(639,519) scale(4.12)"><rect width="6" height="6"/></g>
<g transform="translate(663,519) scale(4.12)"><rect width="6" height="6"/></g>
<g transform="translate(711,519) scale(4.12)"><rect width="6" height="6"/></g>
<g transform="translate(87,543) scale(4.12)"><rect width="6" height="6"/></g>
<g transform="translate(159,543) scale(4.12)"><rect width="6" height="6"/></g>
<g transform="translate(255,543) scale(4.12)"><rect width="6" height="6"/></g>
<g transform="translate(423,543) scale(4.12)"><rect width="6" height="6"/></g>
<g transform="translate(471,543) scale(4.12)"><rect width="6" height="6"/></g>
<g transform="translate(567,543) scale(4.12)"><rect width="6" height="6"/></g>
<g transform="translate(591,543) scale(4.12)"><rect width="6" height="6"/></g>
<g transform="translate(615,543) scale(4.12)"><rect width="6" height="6"/></g>
<g transform="translate(735,543) scale(4.12)"><rect width="6" height="6"/></g>
<g transform="translate(87,567) scale(4.12)"><rect width="6" height="6"/></g>
<g transform="translate(135,567) scale(4.12)"><rect width="6" height="6"/></g>
<g transform="translate(207,567) scale(4.12)"><rect width="6" height="6"/></g>
<g transform="translate(231,567) scale(4.12)"><rect width="6" height="6"/></g>
<g transform="translate(279,567) scale(4.12)"><rect width="6" height="6"/></g>
<g transform="translate(495,567) scale(4.12)"><rect width="6" height="6"/></g>
<g transform="translate(543,567) scale(4.12)"><rect width="6" height="6"/></g>
<g transform="translate(567,567) scale(4.12)"><rect width="6" height="6"/></g>
<g transform="translate(591,567) scale(4.12)"><rect width="6" height="6"/></g>
<g transform="translate(615,567) scale(4.12)"><rect width="6" height="6"/></g>
<g transform="translate(639,567) scale(4.12)"><rect width="6" height="6"/></g>
<g transform="translate(663,567) scale(4.12)"><rect width="6" height="6"/></g>
<g transform="translate(711,567) scale(4.12)"><rect width="6" height="6"/></g>
<g transform="translate(735,567) scale(4.12)"><rect width="6" height="6"/></g>
<g transform="translate(759,567) scale(4.12)"><rect width="6" height="6"/></g>
<g transform="translate(279,591) scale(4.12)"><rect width="6" height="6"/></g>
<g transform="translate(303,591) scale(4.12)"><rect width="6" height="6"/></g>
<g transform="translate(375,591) scale(4.12)"><rect width="6" height="6"/></g>
<g transform="translate(399,591) scale(4.12)"><rect width="6" height="6"/></g>
<g transform="translate(423,591) scale(4.12)"><rect width="6" height="6"/></g>
<g transform="translate(567,591) scale(4.12)"><rect width="6" height="6"/></g>
<g transform="translate(663,591) scale(4.12)"><rect width="6" height="6"/></g>
<g transform="translate(687,591) scale(4.12)"><rect width="6" height="6"/></g>
<g transform="translate(711,591) scale(4.12)"><rect width="6" height="6"/></g>
<g transform="translate(735,591) scale(4.12)"><rect width="6" height="6"/></g>
<g transform="translate(759,591) scale(4.12)"><rect width="6" height="6"/></g>
<g transform="translate(303,615) scale(4.12)"><rect width="6" height="6"/></g>
<g transform="translate(327,615) scale(4.12)"><rect width="6" height="6"/></g>
<g transform="translate(399,615) scale(4.12)"><rect width="6" height="6"/></g>
<g transform="translate(423,615) scale(4.12)"><rect width="6" height="6"/></g>
<g transform="translate(447,615) scale(4.12)"><rect width="6" height="6"/></g>
<g transform="translate(471,615) scale(4.12)"><rect width="6" height="6"/></g>
<g transform="translate(543,615) scale(4.12)"><rect width="6" height="6"/></g>
<g transform="translate(567,615) scale(4.12)"><rect width="6" height="6"/></g>
<g transform="translate(615,615) scale(4.12)"><rect width="6" height="6"/></g>
<g transform="translate(663,615) scale(4.12)"><rect width="6" height="6"/></g>
<g transform="translate(687,615) scale(4.12)"><rect width="6" height="6"/></g>
<g transform="translate(711,615) scale(4.12)"><rect width="6" height="6"/></g>
<g transform="translate(279,639) scale(4.12)"><rect width="6" height="6"/></g>
<g transform="translate(327,639) scale(4.12)"><rect width="6" height="6"/></g>
<g transform="translate(375,639) scale(4.12)"><rect width="6" height="6"/></g>
<g transform="translate(399,639) scale(4.12)"><rect width="6" height="6"/></g>
<g transform="translate(447,639) scale(4.12)"><rect width="6" height="6"/></g>
<g transform="translate(519,639) scale(4.12)"><rect width="6" height="6"/></g>
<g transform="translate(543,639) scale(4.12)"><rect width="6" height="6"/></g>
<g transform="translate(567,639) scale(4.12)"><rect width="6" height="6"/></g>
<g transform="translate(663,639) scale(4.12)"><rect width="6" height="6"/></g>
<g transform="translate(759,639) scale(4.12)"><rect width="6" height="6"/></g>
<g transform="translate(279,663) scale(4.12)"><rect width="6" height="6"/></g>
<g transform="translate(303,663) scale(4.12)"><rect width="6" height="6"/></g>
<g transform="translate(327,663) scale(4.12)"><rect width="6" height="6"/></g>
<g transform="translate(375,663) scale(4.12)"><rect width="6" height="6"/></g>
<g transform="translate(423,663) scale(4.12)"><rect width="6" height="6"/></g>
<g transform="translate(495,663) scale(4.12)"><rect width="6" height="6"/></g>
<g transform="translate(567,663) scale(4.12)"><rect width="6" height="6"/></g>
<g transform="translate(591,663) scale(4.12)"><rect width="6" height="6"/></g>
<g transform="translate(615,663) scale(4.12)"><rect width="6" height="6"/></g>
<g transform="translate(639,663) scale(4.12)"><rect width="6" height="6"/></g>
<g transform="translate(663,663) scale(4.12)"><rect width="6" height="6"/></g>
<g transform="translate(711,663) scale(4.12)"><rect width="6" height="6"/></g>
<g transform="translate(279,687) scale(4.12)"><rect width="6" height="6"/></g>
<g transform="translate(303,687) scale(4.12)"><rect width="6" height="6"/></g>
<g transform="translate(327,687) scale(4.12)"><rect width="6" height="6"/></g>
<g transform="translate(351,687) scale(4.12)"><rect width="6" height="6"/></g>
<g transform="translate(375,687) scale(4.12)"><rect width="6" height="6"/></g>
<g transform="translate(471,687) scale(4.12)"><rect width="6" height="6"/></g>
<g transform="translate(495,687) scale(4.12)"><rect width="6" height="6"/></g>
<g transform="translate(519,687) scale(4.12)"><rect width="6" height="6"/></g>
<g transform="translate(543,687) scale(4.12)"><rect width="6" height="6"/></g>
<g transform="translate(567,687) scale(4.12)"><rect width="6" height="6"/></g>
<g transform="translate(687,687) scale(4.12)"><rect width="6" height="6"/></g>
<g transform="translate(711,687) scale(4.12)"><rect width="6" height="6"/></g>
<g transform="translate(735,687) scale(4.12)"><rect width="6" height="6"/></g>
<g transform="translate(759,687) scale(4.12)"><rect width="6" height="6"/></g>
<g transform="translate(279,711) scale(4.12)"><rect width="6" height="6"/></g>
<g transform="translate(303,711) scale(4.12)"><rect width="6" height="6"/></g>
<g transform="translate(327,711) scale(4.12)"><rect width="6" height="6"/></g>
<g transform="translate(423,711) scale(4.12)"><rect width="6" height="6"/></g>
<g transform="translate(447,711) scale(4.12)"><rect width="6" height="6"/></g>
<g transform="translate(519,711) scale(4.12)"><rect width="6" height="6"/></g>
<g transform="translate(543,711) scale(4.12)"><rect width="6" height="6"/></g>
<g transform="translate(567,711) scale(4.12)"><rect width="6" height="6"/></g>
<g transform="translate(591,711) scale(4.12)"><rect width="6" height="6"/></g>
<g transform="translate(615,711) scale(4.12)"><rect width="6" height="6"/></g>
<g transform="translate(639,711) scale(4.12)"><rect width="6" height="6"/></g>
<g transform="translate(663,711) scale(4.12)"><rect width="6" height="6"/></g>
<g transform="translate(687,711) scale(4.12)"><rect width="6" height="6"/></g>
<g transform="translate(711,711) scale(4.12)"><rect width="6" height="6"/></g>
<g transform="translate(735,711) scale(4.12)"><rect width="6" height="6"/></g>
<g transform="translate(327,735) scale(4.12)"><rect width="6" height="6"/></g>
<g transform="translate(399,735) scale(4.12)"><rect width="6" height="6"/></g>
<g transform="translate(423,735) scale(4.12)"><rect width="6" height="6"/></g>
<g transform="translate(471,735) scale(4.12)"><rect width="6" height="6"/></g>
<g transform="translate(567,735) scale(4.12)"><rect width="6" height="6"/></g>
<g transform="translate(591,735) scale(4.12)"><rect width="6" height="6"/></g>
<g transform="translate(639,735) scale(4.12)"><rect width="6" height="6"/></g>
<g transform="translate(687,735) scale(4.12)"><rect width="6" height="6"/></g>
<g transform="translate(735,735) scale(4.12)"><rect width="6" height="6"/></g>
<g transform="translate(279,759) scale(4.12)"><rect width="6" height="6"/></g>
<g transform="translate(423,759) scale(4.12)"><rect width="6" height="6"/></g>
<g transform="translate(495,759) scale(4.12)"><rect width="6" height="6"/></g>
<g transform="translate(543,759) scale(4.12)"><rect width="6" height="6"/></g>
<g transform="translate(615,759) scale(4.12)"><rect width="6" height="6"/></g>
<g transform="translate(639,759) scale(4.12)"><rect width="6" height="6"/></g>
<g transform="translate(663,759) scale(4.12)"><rect width="6" height="6"/></g>
<g transform="translate(711,759) scale(4.12)"><rect width="6" height="6"/></g>
<g transform="translate(87,87)"><g transform="scale(12)"><path d="M0,0v14h14V0H0z M12,12H2V2h10V12z"/></g></g>
<g transform="translate(615,87)"><g transform="scale(12)"><path d="M0,0v14h14V0H0z M12,12H2V2h10V12z"/></g></g>
<g transform="translate(87,615)"><g transform="scale(12)"><path d="M0,0v14h14V0H0z M12,12H2V2h10V12z"/></g></g>
<g transform="translate(135,135)"><g transform="scale(12)"><rect width="6" height="6"/></g></g>
<g transform="translate(663,135)"><g transform="scale(12)"><rect width="6" height="6"/></g></g>
<g transform="translate(135,663)"><g transform="scale(12)"><rect width="6" height="6"/></g></g>
</g><g transform="translate(87,894.69934971708) scale(1.2037902204206)"><path fill="#FFFFFF" d="M7.71484375,119.921875l0-71.58203125l27.001953125,0q7.12890625,0,10.888671875,0.68359375q5.2734375,0.87890625,8.837890625,3.3447265625t5.7373046875,6.9091796875t2.1728515625,9.765625q0,9.130859375-5.810546875,15.4541015625t-20.99609375,6.3232421875l-18.359375,0l0,29.1015625l-9.47265625,0z M17.1875,82.373046875l18.505859375,0q9.1796875,0,13.037109375-3.41796875t3.857421875-9.619140625q0-4.4921875-2.2705078125-7.6904296875t-5.9814453125-4.2236328125q-2.392578125-0.634765625-8.837890625-0.634765625l-18.310546875,0l0,25.5859375z M72.900390625,139.892578125l-0.9765625-8.251953125q2.880859375,0.78125,5.029296875,0.78125q2.9296875,0,4.6875-0.9765625t2.880859375-2.734375q0.830078125-1.318359375,2.685546875-6.54296875q0.244140625-0.732421875,0.78125-2.1484375l-19.677734375-51.953125l9.47265625,0l10.791015625,30.029296875q2.099609375,5.712890625,3.759765625,12.01171875q1.513671875-6.0546875,3.61328125-11.81640625l11.083984375-30.224609375l8.7890625,0l-19.7265625,52.734375q-3.173828125,8.544921875-4.931640625,11.767578125q-2.34375,4.345703125-5.37109375,6.3720703125t-7.2265625,2.0263671875q-2.5390625,0-5.6640625-1.07421875z M142.48046875,112.060546875l1.26953125,7.763671875q-3.7109375,0.78125-6.640625,0.78125q-4.78515625,0-7.421875-1.513671875t-3.7109375-3.9794921875t-1.07421875-10.3759765625l0-29.833984375l-6.4453125,0l0-6.8359375l6.4453125,0l0-12.841796875l8.740234375-5.2734375l0,18.115234375l8.837890625,0l0,6.8359375l-8.837890625,0l0,30.322265625q0,3.759765625,0.4638671875,4.833984375t1.513671875,1.708984375t3.0029296875,0.634765625q1.46484375,0,3.857421875-0.341796875z M151.07421875,119.921875l0-71.58203125l8.7890625,0l0,25.68359375q6.15234375-7.12890625,15.52734375-7.12890625q5.76171875,0,10.009765625,2.2705078125t6.0791015625,6.2744140625t1.8310546875,11.62109375l0,32.861328125l-8.7890625,0l0-32.861328125q0-6.591796875-2.8564453125-9.5947265625t-8.0810546875-3.0029296875q-3.90625,0-7.3486328125,2.0263671875t-4.9072265625,5.4931640625t-1.46484375,9.5703125l0,28.369140625l-8.7890625,0z M203.41796875,93.994140625q0-14.404296875,8.0078125-21.337890625q6.689453125-5.76171875,16.30859375-5.76171875q10.693359375,0,17.48046875,7.0068359375t6.787109375,19.3603515625q0,10.009765625-3.0029296875,15.7470703125t-8.740234375,8.9111328125t-12.5244140625,3.173828125q-10.888671875,0-17.6025390625-6.982421875t-6.7138671875-20.1171875z M212.451171875,93.994140625q0,9.9609375,4.345703125,14.9169921875t10.9375,4.9560546875q6.54296875,0,10.888671875-4.98046875t4.345703125-15.185546875q0-9.619140625-4.3701171875-14.5751953125t-10.8642578125-4.9560546875q-6.591796875,0-10.9375,4.931640625t-4.345703125,14.892578125z M262.3046875,119.921875l0-51.85546875l7.91015625,0l0,7.373046875q5.712890625-8.544921875,16.50390625-8.544921875q4.6875,0,8.6181640625,1.6845703125t5.8837890625,4.4189453125t2.734375,6.494140625q0.48828125,2.44140625,0.48828125,8.544921875l0,31.884765625l-8.7890625,0l0-31.54296875q0-5.37109375-1.025390625-8.0322265625t-3.6376953125-4.248046875t-6.1279296875-1.5869140625q-5.615234375,0-9.6923828125,3.564453125t-4.0771484375,13.525390625l0,28.3203125l-8.7890625,0z  M397.900390625,94.82421875l9.47265625,2.392578125q-2.978515625,11.669921875-10.7177734375,17.7978515625t-18.9208984375,6.1279296875q-11.572265625,0-18.8232421875-4.7119140625t-11.03515625-13.6474609375t-3.7841796875-19.189453125q0-11.181640625,4.2724609375-19.5068359375t12.158203125-12.646484375t17.3583984375-4.3212890625q10.7421875,0,18.06640625,5.46875t10.205078125,15.380859375l-9.326171875,2.197265625q-2.490234375-7.8125-7.2265625-11.376953125t-11.9140625-3.564453125q-8.251953125,0-13.7939453125,3.955078125t-7.7880859375,10.6201171875t-2.24609375,13.7451171875q0,9.130859375,2.6611328125,15.9423828125t8.2763671875,10.1806640625t12.158203125,3.369140625q7.958984375,0,13.4765625-4.58984375t7.470703125-13.623046875z M414.6484375,93.994140625q0-14.404296875,8.0078125-21.337890625q6.689453125-5.76171875,16.30859375-5.76171875q10.693359375,0,17.48046875,7.0068359375t6.787109375,19.3603515625q0,10.009765625-3.0029296875,15.7470703125t-8.740234375,8.9111328125t-12.5244140625,3.173828125q-10.888671875,0-17.6025390625-6.982421875t-6.7138671875-20.1171875z M423.681640625,93.994140625q0,9.9609375,4.345703125,14.9169921875t10.9375,4.9560546875q6.54296875,0,10.888671875-4.98046875t4.345703125-15.185546875q0-9.619140625-4.3701171875-14.5751953125t-10.8642578125-4.9560546875q-6.591796875,0-10.9375,4.931640625t-4.345703125,14.892578125z M507.177734375,119.921875l0-6.54296875q-4.931640625,7.71484375-14.501953125,7.71484375q-6.201171875,0-11.4013671875-3.41796875t-8.056640625-9.5458984375t-2.8564453125-14.0869140625q0-7.763671875,2.587890625-14.0869140625t7.763671875-9.6923828125t11.572265625-3.369140625q4.6875,0,8.349609375,1.9775390625t5.95703125,5.1513671875l0-25.68359375l8.740234375,0l0,71.58203125l-8.154296875,0z M479.39453125,94.04296875q0,9.9609375,4.19921875,14.892578125t9.912109375,4.931640625q5.76171875,0,9.7900390625-4.7119140625t4.0283203125-14.3798828125q0-10.64453125-4.1015625-15.625t-10.107421875-4.98046875q-5.859375,0-9.7900390625,4.78515625t-3.9306640625,15.087890625z M564.6484375,103.22265625l9.08203125,1.123046875q-2.1484375,7.958984375-7.958984375,12.353515625t-14.84375,4.39453125q-11.376953125,0-18.0419921875-7.0068359375t-6.6650390625-19.6533203125q0-13.0859375,6.73828125-20.3125t17.48046875-7.2265625q10.400390625,0,16.9921875,7.080078125t6.591796875,19.921875q0,0.78125-0.048828125,2.34375l-38.671875,0q0.48828125,8.544921875,4.833984375,13.0859375t10.83984375,4.541015625q4.833984375,0,8.251953125-2.5390625t5.419921875-8.10546875z M535.791015625,89.013671875l28.955078125,0q-0.5859375-6.54296875-3.3203125-9.814453125q-4.19921875-5.078125-10.888671875-5.078125q-6.0546875,0-10.1806640625,4.052734375t-4.5654296875,10.83984375z"/></g></svg>
